<svg width="223" height="229" viewBox="0 0 223 229" fill="none" xmlns="http://www.w3.org/2000/svg">
<path d="M28.5422 108.349C23.2709 117.069 23.9861 117.503 18.7147 126.223C13.4434 134.944 13.3455 134.887 8.07959 143.61C7.25168 144.978 8.06553 146.173 9.65791 146.031C20.6468 145.056 20.709 145.768 31.6988 144.79C42.6886 143.813 42.6549 143.414 53.642 142.442C54.5492 142.388 55.2898 141.695 55.4055 140.793C55.5212 139.891 54.9792 139.035 54.115 138.755C43.7844 135.133 43.6794 135.439 33.3461 131.827C32.55 131.549 32.6519 130.461 32.6699 129.618C32.8698 119.631 32.9321 119.628 33.1294 109.646C33.1575 107.641 29.567 106.634 28.5422 108.349Z" fill="#F6AE2D"/>
<path d="M26.8407 129.815C40.8051 119.92 55.5041 111.19 70.7824 103.715C86.2146 96.1721 102.375 90.4556 118.929 86.6845C135.483 82.9627 152.302 81.1396 169.06 81.2501C185.659 81.3852 202.14 82.9625 218.323 85.9645C220.29 86.2648 221.577 88.1156 221.223 90.1346C220.869 92.1536 219.002 93.6031 217.018 93.4005C200.98 92.0718 184.842 91.5864 168.666 91.9463C152.654 92.3158 136.631 94.2148 120.81 97.6181C116.858 98.4463 112.971 99.5889 109.051 100.563C105.13 101.536 101.296 102.929 97.4113 104.095L85.9449 108.268C82.1703 109.85 78.3559 111.323 74.6072 112.991C59.5393 119.797 44.8489 127.512 30.619 136.093C28.8825 137.051 26.7814 136.528 25.7993 134.895C24.8173 133.261 25.2862 131.068 26.875 129.864L26.8407 129.815Z" fill="#F6AE2D"/>
</svg>
