<svg width="206" height="207" viewBox="0 0 206 207" fill="none" xmlns="http://www.w3.org/2000/svg">
<path d="M171.978 123.709C178.433 114.502 177.678 113.971 184.133 104.765C190.589 95.5585 190.692 95.6285 197.142 86.4188C198.156 84.9741 197.349 83.5978 195.585 83.6345C183.414 83.887 183.399 83.0987 171.227 83.3532C159.055 83.6076 159.062 84.0492 146.893 84.2978C145.89 84.2899 145.023 84.9969 144.828 85.9813C144.634 86.9657 145.166 87.9488 146.097 88.3222C157.199 93.0819 157.338 92.7528 168.444 97.5017C169.3 97.867 169.106 99.0571 169.023 99.9843C168.057 110.965 167.988 110.963 167.025 121.938C166.844 124.144 170.721 125.52 171.978 123.709Z" fill="#F6AE2D"/>
<path d="M190.29 93.5017C176.531 101.622 162.113 108.57 147.188 114.275C132.114 120.03 116.412 123.985 100.408 126.06C84.4061 128.087 68.2246 128.289 52.1753 126.661C36.2794 125.025 20.5522 122.031 5.16592 117.712C3.29282 117.249 2.13109 115.376 2.54852 113.492C2.96594 111.609 4.81004 110.403 6.70333 110.775C22.0151 113.493 37.4564 115.42 52.9658 116.548C68.3191 117.652 83.7416 117.306 99.0286 115.514C102.846 115.088 106.614 114.357 110.407 113.789C114.201 113.221 117.927 112.248 121.694 111.495L132.839 108.577C136.516 107.419 140.227 106.367 143.882 105.125C158.58 100.037 172.95 94.0514 186.913 87.2022C188.614 86.451 190.606 87.1375 191.484 88.7769C192.362 90.4163 191.828 92.4545 190.259 93.4522L190.29 93.5017Z" fill="#F6AE2D"/>
</svg>
