<svg width="441" height="388" viewBox="0 0 441 388" fill="none" xmlns="http://www.w3.org/2000/svg">
<path fill-rule="evenodd" clip-rule="evenodd" d="M69.0014 323.628C86.2837 348.354 108.047 371.697 136.564 381.497C172.295 393.787 212.162 382.5 245.156 364.012C306.301 329.701 350.976 272.827 393.985 217.419C410.51 196.135 427.361 174.234 435.303 148.489C443.246 122.743 440.642 91.9343 421.754 72.722C407.975 58.688 387.6 52.8714 367.931 52.1869C348.263 51.5024 328.769 55.5052 309.306 58.3868C249.11 67.2807 187.889 65.7947 127.342 71.3599C95.6848 74.2392 23.34 85.204 4.91982 137.635C-5.10974 166.21 1.68467 195.14 14.4088 222.683C30.4538 257.432 47.0093 292.169 69.0014 323.628Z" fill="#F7F7F7"/>
<path fill-rule="evenodd" clip-rule="evenodd" d="M158.219 90.9997C158.111 91.5544 158.2 92.1278 158.47 92.6281C158.748 93.1227 159.182 93.5153 159.705 93.7469C159.838 93.7979 159.977 93.8396 160.116 93.872L160.027 93.8616L160.245 93.8882L160.683 93.9392L162.419 94.2762L165.894 94.9422C170.505 95.8132 175.099 96.7791 179.699 97.6918C188.906 99.5194 198.093 101.435 207.31 103.175C216.528 104.916 225.75 106.62 234.982 108.301L262.68 113.207C267.301 114.007 271.915 114.887 276.532 115.723L283.486 117.001L290.387 118.354L304.207 121.044L307.676 121.736L308.544 121.909H308.542L308.794 121.938C309.067 121.981 309.349 121.975 309.624 121.92C310.188 121.803 310.695 121.499 311.065 121.059C311.25 120.835 311.394 120.58 311.488 120.306C311.505 120.237 311.513 120.167 311.512 120.097C311.53 119.997 311.543 119.895 311.549 119.792L311.718 118.931L317.279 91.5313C319.031 82.3803 320.885 73.2501 322.568 64.0829C322.826 62.6664 322.058 61.2638 320.726 60.7183C320.568 60.6488 320.401 60.5967 320.234 60.5631L319.868 60.5202L319.653 60.4948L319.217 60.4438L317.489 60.1172L314.033 59.4663C309.449 58.5779 304.858 57.7822 300.273 56.9031L272.731 51.9275L245.258 46.7144C236.106 44.9203 226.963 43.0487 217.828 41.0982L190.429 35.335L176.709 32.5703L173.258 31.8812L172.396 31.7133L171.959 31.6623L171.663 31.6276C171.303 31.5835 170.934 31.6079 170.579 31.6982C169.862 31.8858 169.222 32.3283 168.762 32.9514C168.537 33.2595 168.362 33.6069 168.245 33.9787C168.212 34.0702 168.185 34.1652 168.168 34.2625L167.971 35.9454L167.818 36.7966C164.512 54.8114 161.617 72.9524 158.228 91.0008L158.219 90.9997ZM153.249 90.0476C156.763 71.6425 160.774 53.322 164.367 34.9342L164.53 34.0667L164.646 33.5479C164.69 33.3498 164.749 33.1552 164.819 32.9653C165.069 32.1962 165.453 31.4793 165.955 30.8458C166.972 29.5683 168.392 28.6753 169.983 28.3128C170.772 28.1402 171.582 28.0939 172.382 28.1784L172.935 28.2433L173.361 28.2931L174.223 28.4575L177.678 29.1073L191.447 31.631L219.006 36.4608C228.207 38.0556 237.386 39.7153 246.548 41.4434L274.019 46.807L301.443 52.3919C306.016 53.3092 310.583 54.2705 315.167 55.1438L318.618 55.8202L320.344 56.1596L320.779 56.2105L320.998 56.236L321.295 56.2708C323.328 56.7341 325.058 58.0602 326.033 59.9029C326.806 61.3611 327.062 63.0393 326.755 64.662C324.982 73.8304 323.375 83.0254 321.67 92.21L316.842 119.807L316.687 120.672C316.674 120.785 316.647 121.02 316.57 121.232C316.529 121.444 316.473 121.654 316.398 121.858C316.135 122.698 315.721 123.484 315.18 124.18C313.533 126.329 310.882 127.461 308.188 127.167L307.572 127.095L307.137 127.043L306.272 126.889L302.815 126.271L289.052 123.771L282.14 122.509L275.235 121.166C270.662 120.268 266.074 119.42 261.503 118.477L234.08 112.878C224.934 111.08 215.781 109.237 206.612 107.576C197.439 105.915 188.245 104.28 179.065 102.635C174.473 101.813 169.876 101.036 165.293 100.134L161.839 99.4905L160.111 99.172L159.682 99.1222L159.462 99.0955L159.149 99.0585C158.719 98.9658 158.296 98.8338 157.892 98.6635C154.492 97.2482 152.545 93.6485 153.216 90.0256L153.249 90.0476ZM284.814 338.773C287.24 339.206 289.705 339.154 292.012 338.619C294.32 338.072 296.399 337.046 298.072 335.627C299.747 334.214 300.965 332.441 301.618 330.464C301.779 329.971 301.905 329.464 301.991 328.95C302.046 328.721 302.126 328.398 302.147 328.092L302.289 327.182L302.881 323.523L307.64 294.463C310.821 275.094 314.084 255.713 317.162 236.355C320.242 216.999 323.282 197.563 326.3 178.168L335.106 119.921L339.632 90.8201L341.907 76.2649L344.279 61.7723L345.461 54.5057C345.656 53.3057 345.886 52.0062 345.953 51.0646C345.998 50.5504 345.946 50.035 345.949 49.5416C345.952 49.047 345.844 48.5038 345.713 47.9618C345.262 45.8897 344.25 43.8999 342.763 42.1591C341.264 40.4184 339.337 38.9741 337.134 37.9421C336.029 37.4383 334.868 37.0457 333.677 36.7723L332.775 36.5499L331.696 36.3461L329.555 35.9407L320.987 34.3273L303.862 31.0867L235.319 18.1252C212.452 13.8907 189.575 9.56251 166.733 5.40339C164.214 4.95979 161.654 5.02349 159.258 5.58754C156.871 6.16549 154.722 7.23567 152.992 8.71123C151.274 10.1879 150.034 12.0318 149.378 14.0853C149.218 14.5961 149.089 15.115 148.996 15.6431C148.869 16.1666 148.801 16.8361 148.701 17.4279L148.126 21.0913L143.677 50.211L134.787 108.436L125.657 166.626C122.504 186.003 119.4 205.423 116.14 224.744L106.46 282.829L105.288 290.098C105.094 291.298 104.86 292.573 104.792 293.59C104.74 294.133 104.795 294.68 104.787 295.227C104.779 295.772 104.898 296.319 105.035 296.863C105.515 299.041 106.582 301.128 108.15 302.957C109.732 304.789 111.763 306.311 114.082 307.399C115.246 307.932 116.468 308.349 117.724 308.639L118.669 308.871L119.749 309.068L121.888 309.466L130.464 311.058L147.619 314.176C193.261 322.485 239.073 330.417 284.814 338.773ZM284.105 342.991C238.415 334.555 192.812 325.628 147.16 317.147L130.029 313.958L121.456 312.397L119.317 312.007L118.246 311.811L117.081 311.525C108.931 309.657 102.544 303.77 100.984 296.681C100.808 295.993 100.763 295.297 100.654 294.608C100.544 293.92 100.586 293.224 100.649 292.538C100.749 291.103 100.964 289.964 101.148 288.738L102.286 281.475L111.094 223.276C113.986 203.875 117.017 184.493 120.058 165.113L129.342 107.045L138.971 48.9937L143.729 19.9771L144.322 16.3207C144.474 15.7114 144.496 15.1462 144.643 14.4756C144.753 13.7969 144.919 13.1286 145.132 12.4754C146.006 9.84743 147.627 7.49048 149.851 5.60607C152.093 3.73325 154.867 2.38509 157.944 1.67395C161.006 0.959337 164.28 0.889845 167.503 1.47127C190.345 5.7161 213.206 9.80574 236.055 13.9834L304.631 26.2963L321.752 29.3389L330.323 30.8701L332.477 31.2175L333.555 31.4144L334.762 31.7121C339.759 32.8425 344.246 35.4774 347.376 39.1188C349.461 41.521 350.885 44.2729 351.528 47.1441C351.711 47.8656 351.761 48.5849 351.898 49.3111C352.034 50.0361 351.967 50.7565 351.909 51.4654C351.803 52.9606 351.578 54.0991 351.395 55.3234L350.259 62.5865L347.993 77.1243L345.652 91.6483L340.932 120.689L331.26 178.724C328.114 198.085 324.905 217.461 321.915 236.822C318.924 256.183 315.93 275.596 312.952 294.985L308.465 324.067L307.89 327.728L307.748 328.635C307.674 328.937 307.664 329.224 307.577 329.583C307.463 330.281 307.296 330.969 307.073 331.641C306.193 334.344 304.54 336.769 302.258 338.707C299.988 340.645 297.17 342.052 294.035 342.812C290.851 343.548 287.447 343.611 284.105 342.991Z" fill="black"/>
<path fill-rule="evenodd" clip-rule="evenodd" d="M290.158 310.192C290.427 310.22 290.701 310.175 290.931 310.065C291.157 309.95 291.331 309.781 291.421 309.58C291.438 309.529 291.453 309.477 291.465 309.425L291.464 309.457L291.467 309.376L291.475 309.21L291.57 308.556L291.754 307.246C291.994 305.506 292.279 303.771 292.54 302.036C293.061 298.563 293.622 295.094 294.1 291.618C294.579 288.141 295.042 284.664 295.488 281.184L296.772 270.745C296.978 269.004 297.221 267.266 297.443 265.525L297.788 262.903L298.17 260.299L298.924 255.086L299.122 253.776L299.171 253.448V253.449L299.177 253.356C299.186 253.251 299.171 253.146 299.137 253.045C299.057 252.837 298.892 252.655 298.667 252.526C298.551 252.462 298.424 252.413 298.286 252.384C298.252 252.379 298.22 252.377 298.186 252.379C298.138 252.375 298.088 252.372 298.039 252.372L297.616 252.326L284.233 250.827C279.765 250.366 275.306 249.866 270.834 249.43C270.142 249.363 269.497 249.681 269.289 250.188C269.26 250.249 269.244 250.312 269.233 250.376L269.226 250.513L269.222 250.594L269.214 250.759L269.124 251.41L268.947 252.712C268.698 254.441 268.492 256.172 268.248 257.902L266.929 268.283L265.49 278.644C264.984 282.097 264.438 285.549 263.856 288.998L262.153 299.342L261.354 304.521L261.157 305.823L261.11 306.148L261.102 306.311L261.098 306.422C261.093 306.558 261.117 306.695 261.175 306.827C261.293 307.09 261.531 307.32 261.848 307.478C262.005 307.556 262.177 307.613 262.36 307.649C262.405 307.659 262.453 307.668 262.5 307.672L263.317 307.71L263.733 307.75C272.52 308.605 281.352 309.303 290.158 310.189V310.192ZM289.893 312.066C280.911 311.142 271.95 310.03 262.972 309.076L262.548 309.033L262.295 309.002C262.198 308.989 262.102 308.971 262.008 308.949C261.629 308.872 261.269 308.744 260.946 308.57C260.29 308.218 259.806 307.707 259.569 307.12C259.458 306.83 259.404 306.528 259.413 306.227L259.421 306.019L259.429 305.86L259.474 305.534L259.654 304.231L260.33 299.041L261.582 288.656C261.991 285.189 262.433 281.728 262.906 278.273L264.418 267.91L266.034 257.559C266.299 255.833 266.584 254.11 266.826 252.38L267.017 251.079L267.113 250.427L267.121 250.263L267.124 250.182L267.129 250.071C267.274 249.302 267.843 248.629 268.689 248.225C269.36 247.906 270.159 247.775 270.949 247.856C275.425 248.324 279.909 248.732 284.389 249.175L297.84 250.396L298.262 250.436C298.317 250.438 298.429 250.444 298.534 250.468C298.638 250.479 298.742 250.496 298.843 250.519C299.255 250.6 299.649 250.737 300.006 250.925C301.102 251.494 301.751 252.459 301.712 253.47L301.703 253.702L301.696 253.865L301.655 254.191L301.492 255.495L300.825 260.682L300.487 263.29L300.111 265.894C299.855 267.619 299.627 269.349 299.35 271.074L297.725 281.425C297.218 284.876 296.686 288.329 296.245 291.786C295.803 295.245 295.374 298.709 294.941 302.17C294.722 303.9 294.526 305.631 294.274 307.361L294.097 308.664L294.013 309.315L294.003 309.476L294 309.558L293.994 309.676C293.967 309.838 293.92 309.998 293.853 310.153C293.306 311.451 291.65 312.254 289.885 312.08L289.893 312.066Z" fill="black"/>
<path fill-rule="evenodd" clip-rule="evenodd" d="M290.277 311.894C290.336 312.004 290.312 312.226 290.228 312.323L289.924 311.66C290.713 311.74 291.527 311.61 292.22 311.255C292.563 311.079 292.871 310.847 293.117 310.566C293.37 310.286 293.506 309.942 293.592 309.606L293.587 309.656L293.606 309.296L293.609 309.262L295.419 295.386C295.706 293.07 296.018 290.759 296.369 288.449L297.338 281.514C298.021 276.9 298.78 272.289 299.417 267.673C300.1 263.066 300.643 258.437 301.263 253.812L301.259 253.845C301.293 253.38 301.298 253.09 301.165 252.737C301.044 252.402 300.83 252.091 300.559 251.832C300.287 251.571 299.957 251.361 299.607 251.198C299.266 251.04 298.847 250.93 298.494 250.882L298.44 250.873L282.301 249.331L274.208 248.507L272.184 248.31C271.508 248.263 270.82 248.137 270.215 248.178C268.985 248.244 267.683 248.98 267.471 250.134L267.477 250.087L267.46 250.443L267.456 250.478L265.373 264.316C264.644 268.922 264.033 273.544 263.361 278.157C262.764 282.78 262.124 287.391 261.56 292.025C260.994 296.655 260.414 301.283 259.756 305.906L259.759 305.876C259.527 307.158 260.53 308.198 261.725 308.554C262.314 308.734 262.995 308.758 263.678 308.844L265.72 309.065L273.907 309.968L290.277 311.894ZM289.509 312.241L273.566 310.577L265.6 309.686L263.601 309.457C262.947 309.364 262.258 309.364 261.543 309.154C260.843 308.945 260.186 308.551 259.705 307.966C259.202 307.411 259.001 306.517 259.099 305.844L259.103 305.814C259.726 301.198 260.271 296.565 260.801 291.933C261.329 287.303 261.927 282.667 262.504 278.036C263.203 273.423 263.843 268.8 264.6 264.197L266.767 250.377L266.763 250.41L266.779 250.053L266.786 250.006C266.936 249.219 267.462 248.573 268.088 248.171C268.717 247.762 269.444 247.555 270.17 247.508C270.918 247.467 271.577 247.603 272.252 247.651L274.275 247.85L282.371 248.616L298.63 250.063L298.576 250.055C299.076 250.119 299.502 250.235 299.948 250.43C300.381 250.626 300.792 250.879 301.146 251.216C301.498 251.549 301.793 251.964 301.972 252.44C302.166 252.898 302.159 253.494 302.126 253.886L302.125 253.908L302.124 253.919C301.56 258.55 300.986 263.184 300.261 267.801C299.589 272.424 298.795 277.015 298.071 281.625C297.405 286.239 296.675 290.841 296.15 295.478L294.414 309.368L294.416 309.334L294.401 309.695V309.709L294.397 309.746C294.281 310.252 294.073 310.724 293.743 311.099C293.42 311.477 293.024 311.772 292.599 311.993C291.746 312.436 290.778 312.589 289.843 312.499L289.538 311.836C289.461 311.925 289.442 312.139 289.509 312.241Z" fill="black"/>
<path fill-rule="evenodd" clip-rule="evenodd" d="M289.838 310.467C289.588 310.083 290.477 310.949 290.11 310.609L290.103 310.607L290.09 310.606L290.059 310.604L290.002 310.598L289.884 310.588L289.652 310.565L289.183 310.521L288.246 310.431L286.374 310.252L282.628 309.896L275.138 309.183L267.646 308.468L263.901 308.117C263.584 308.091 263.289 308.056 262.971 308.049L262.502 308.029C262.292 308.017 262.122 307.944 261.949 307.889C261.598 307.803 261.266 307.578 261.016 307.26C260.892 307.103 260.79 306.901 260.753 306.681C260.712 306.436 260.745 306.28 260.744 306.131L260.746 306.109L260.747 306.096C261.408 301.469 262.133 296.863 262.89 292.257L265.081 278.443C265.725 273.823 266.435 269.215 267.016 264.585C267.614 259.96 268.232 255.332 268.89 250.713L268.886 250.743L268.905 250.361V250.349L268.908 250.325C269.102 249.442 269.948 249.093 270.637 249.088C271.317 249.127 271.874 249.205 272.5 249.262L276.158 249.632L283.472 250.37L298.084 251.953L298.039 251.95L298.226 251.958L298.163 251.957C298.23 251.957 298.298 251.96 298.362 251.967L298.494 252.011L298.751 252.106C298.928 252.163 299.07 252.279 299.209 252.406C299.344 252.537 299.46 252.699 299.537 252.897C299.576 253.076 299.613 253.387 299.6 253.47L299.59 253.525C299.547 253.757 299.324 253.91 299.092 253.867C298.88 253.829 298.736 253.64 298.744 253.43V253.429L299.596 253.512C298.929 258.156 298.172 262.783 297.585 267.432L295.794 281.39C295.116 286.034 294.607 290.702 293.894 295.34L291.883 309.27L291.888 309.23L291.876 309.477L291.051 309.438L291.052 309.405L291.872 309.504C291.83 309.71 291.729 309.923 291.6 310.061C291.474 310.211 291.321 310.329 291.16 310.416C290.984 310.509 290.82 310.56 290.64 310.591C290.553 310.607 290.467 310.617 290.379 310.62L290.247 310.621L290.181 310.618C290.071 310.616 289.914 310.55 289.838 310.467ZM290.478 309.916C290.434 309.838 290.311 309.775 290.239 309.776L290.276 309.778H290.35C290.399 309.777 290.449 309.772 290.498 309.765C290.593 309.749 290.693 309.717 290.765 309.68C290.845 309.637 290.917 309.581 290.969 309.523C291.027 309.454 291.039 309.41 291.059 309.345L291.068 309.308C291.131 309.09 291.359 308.963 291.58 309.025C291.769 309.08 291.888 309.256 291.879 309.443L291.876 309.477L291.051 309.438L291.064 309.191C291.064 309.181 291.066 309.163 291.067 309.152L293.21 295.243C293.961 290.613 294.539 285.958 295.144 281.308L296.82 267.336C297.386 262.67 298.06 258.026 298.748 253.385C298.784 253.151 299.002 252.989 299.233 253.024C299.454 253.057 299.608 253.252 299.601 253.468V253.47L298.744 253.43C298.761 253.241 298.716 253.284 298.736 253.194C298.716 253.138 298.674 253.07 298.615 253.014C298.554 252.962 298.483 252.892 298.395 252.875C298.337 252.863 298.174 252.78 298.207 252.801L298.208 252.802L298.207 252.804L298.146 252.8L298.039 252.794L297.997 252.792H297.992L283.392 251.117L276.087 250.332L272.435 249.939C271.839 249.879 271.184 249.793 270.641 249.756C270.14 249.741 269.619 250.049 269.558 250.426L269.559 250.392L269.542 250.773L269.539 250.802C268.913 255.428 268.332 260.053 267.77 264.686C267.223 269.318 266.546 273.937 265.937 278.564C265.236 283.179 264.522 287.802 263.726 292.395C262.941 296.99 262.174 301.594 261.474 306.2L261.477 306.166C261.452 306.542 261.45 306.615 261.593 306.824C261.73 306.994 261.935 307.162 262.197 307.216C262.324 307.257 262.444 307.312 262.552 307.317L263.022 307.342C263.331 307.352 263.658 307.391 263.966 307.419L267.715 307.759L275.21 308.429L282.708 309.098L286.454 309.434L288.328 309.602L289.266 309.685L289.734 309.727L289.968 309.748L290.087 309.76L290.146 309.764L290.174 309.768H290.189H290.197C289.837 309.428 290.729 310.296 290.478 309.916Z" fill="black"/>
<path fill-rule="evenodd" clip-rule="evenodd" d="M176.225 140.963C176.802 137.54 177.377 134.054 177.927 130.546C178.482 127.048 179.077 123.531 179.51 119.994L180.73 121.727C178.084 121.363 175.434 121.035 172.804 120.6C170.172 120.173 167.552 119.67 164.936 119.143C159.707 118.07 154.499 116.89 149.238 116.023L150.7 114.991C150.063 118.665 149.578 122.365 149.046 126.057C148.543 129.754 147.95 133.436 147.258 137.1L145.913 135.188C150.941 136.16 156.02 137.441 161.136 138.395C163.683 138.876 166.231 139.342 168.753 139.765C171.274 140.189 173.787 140.613 176.225 140.963ZM178.096 143.624C175.28 143.061 172.537 142.574 169.802 142.084C167.068 141.594 164.362 141.147 161.654 140.715C156.26 139.844 150.83 139.3 145.345 138.446C144.462 138.308 143.853 137.476 143.991 136.59L143.992 136.587L144 136.534C144.583 132.851 145.266 129.185 146.038 125.534C146.781 121.879 147.567 118.232 148.207 114.558L148.208 114.546C148.325 113.864 148.976 113.405 149.66 113.525L149.671 113.526C154.918 114.484 160.219 115.131 165.501 115.883C168.142 116.269 170.778 116.679 173.4 117.164C176.022 117.642 178.628 118.227 181.241 118.775L181.359 118.8C182.131 118.963 182.623 119.721 182.463 120.494L182.46 120.508C181.617 124.319 180.936 128.149 180.218 131.999C179.491 135.839 178.794 139.7 178.096 143.624Z" fill="black"/>
<path fill-rule="evenodd" clip-rule="evenodd" d="M170.845 178.803C171.424 175.379 171.998 171.894 172.548 168.386C173.103 164.888 173.697 161.371 174.13 157.835L175.35 159.567C172.704 159.204 170.054 158.875 167.425 158.441C164.792 158.012 162.172 157.51 159.557 156.984C154.328 155.909 149.119 154.73 143.858 153.862L145.32 152.831C144.684 156.505 144.199 160.204 143.667 163.897C143.164 167.594 142.57 171.275 141.879 174.939L140.534 173.028C145.561 173.999 150.641 175.281 155.756 176.235C158.305 176.716 160.852 177.183 163.374 177.605C165.894 178.029 168.407 178.453 170.845 178.803ZM172.717 181.465C169.9 180.902 167.157 180.413 164.422 179.924C161.689 179.434 158.983 178.987 156.275 178.555C150.881 177.684 145.45 177.14 139.967 176.286C139.082 176.147 138.474 175.317 138.613 174.431V174.427L138.621 174.374C139.204 170.691 139.886 167.025 140.658 163.375C141.401 159.718 142.188 156.072 142.827 152.398L142.829 152.387C142.946 151.703 143.598 151.246 144.281 151.365L144.291 151.366C149.538 152.324 154.839 152.97 160.121 153.723C162.763 154.109 165.398 154.519 168.021 155.003C170.642 155.482 173.248 156.066 175.861 156.615L175.979 156.641C176.751 156.803 177.245 157.56 177.084 158.333L177.08 158.348C176.238 162.16 175.556 165.99 174.838 169.84C174.111 173.679 173.414 177.541 172.717 181.465Z" fill="black"/>
<path fill-rule="evenodd" clip-rule="evenodd" d="M165.466 216.643C166.044 213.22 166.619 209.733 167.168 206.226C167.724 202.729 168.318 199.21 168.752 195.675L169.971 197.408C167.325 197.043 164.675 196.715 162.045 196.281C159.413 195.852 156.794 195.35 154.177 194.823C148.948 193.749 143.74 192.57 138.479 191.702L139.941 190.672C139.304 194.344 138.819 198.045 138.288 201.737C137.785 205.434 137.191 209.115 136.5 212.78L135.155 210.868C140.182 211.839 145.262 213.121 150.377 214.076C152.924 214.556 155.473 215.023 157.995 215.446C160.515 215.868 163.028 216.292 165.466 216.643ZM167.337 219.305C164.521 218.742 161.778 218.253 159.043 217.764C156.31 217.275 153.604 216.827 150.895 216.394C145.501 215.523 140.071 214.98 134.588 214.125C133.703 213.988 133.096 213.157 133.233 212.271V212.268L133.243 212.214C133.824 208.53 134.507 204.864 135.28 201.215C136.022 197.558 136.809 193.911 137.448 190.238L137.45 190.227C137.567 189.544 138.219 189.086 138.902 189.204L138.912 189.207C144.159 190.164 149.46 190.811 154.742 191.562C157.384 191.948 160.019 192.359 162.643 192.843C165.264 193.323 167.87 193.907 170.482 194.456L170.6 194.48C171.372 194.643 171.865 195.401 171.705 196.173L171.701 196.188C170.858 200 170.177 203.83 169.459 207.68C168.732 211.518 168.035 215.38 167.337 219.305Z" fill="black"/>
<path fill-rule="evenodd" clip-rule="evenodd" d="M160.086 254.483C160.665 251.061 161.239 247.573 161.788 244.066C162.344 240.568 162.938 237.051 163.372 233.515L164.591 235.248C161.945 234.884 159.295 234.555 156.665 234.121C154.033 233.692 151.414 233.191 148.797 232.662C143.57 231.589 138.36 230.411 133.099 229.543L134.561 228.511C133.924 232.185 133.439 235.885 132.908 239.577C132.404 243.274 131.811 246.956 131.12 250.619L129.775 248.708C134.802 249.68 139.882 250.961 144.997 251.915C147.545 252.396 150.093 252.863 152.615 253.285C155.135 253.708 157.649 254.133 160.086 254.483ZM161.957 257.145C159.142 256.582 156.398 256.093 153.663 255.604C150.93 255.114 148.224 254.667 145.515 254.235C140.122 253.363 134.691 252.82 129.208 251.965C128.323 251.827 127.716 250.997 127.853 250.111V250.107L127.863 250.054C128.444 246.37 129.128 242.704 129.9 239.055C130.642 235.398 131.429 231.751 132.067 228.077L132.07 228.067C132.187 227.384 132.838 226.926 133.522 227.045L133.532 227.046C138.78 228.004 144.081 228.65 149.362 229.403C152.004 229.789 154.638 230.199 157.263 230.683C159.884 231.163 162.49 231.746 165.102 232.295L165.22 232.32C165.992 232.483 166.486 233.24 166.325 234.013L166.322 234.028C165.479 237.84 164.797 241.67 164.079 245.52C163.352 249.359 162.655 253.219 161.957 257.145Z" fill="black"/>
<path fill-rule="evenodd" clip-rule="evenodd" d="M154.707 292.323C155.286 288.9 155.86 285.414 156.41 281.906C156.965 278.408 157.56 274.891 157.993 271.355L159.212 273.087C156.566 272.724 153.916 272.395 151.287 271.96C148.654 271.533 146.035 271.03 143.418 270.503C138.191 269.428 132.981 268.251 127.72 267.383L129.183 266.351C128.546 270.025 128.061 273.724 127.529 277.417C127.026 281.114 126.432 284.796 125.741 288.459L124.396 286.548C129.423 287.52 134.503 288.801 139.618 289.755C142.166 290.236 144.714 290.702 147.237 291.125C149.756 291.549 152.27 291.973 154.707 292.323ZM156.579 294.984C153.764 294.421 151.019 293.934 148.284 293.444C145.551 292.954 142.845 292.507 140.138 292.075C134.744 291.204 129.312 290.66 123.829 289.805C122.944 289.667 122.337 288.837 122.475 287.951V287.947L122.484 287.894C123.065 284.211 123.749 280.545 124.521 276.894C125.263 273.238 126.05 269.592 126.689 265.918L126.691 265.906C126.808 265.224 127.46 264.766 128.143 264.885L128.154 264.887C133.401 265.845 138.702 266.49 143.984 267.243C146.625 267.629 149.261 268.039 151.884 268.523C154.506 269.002 157.111 269.586 159.723 270.136L159.841 270.159C160.614 270.323 161.107 271.08 160.946 271.853L160.943 271.868C160.1 275.679 159.418 279.51 158.7 283.359C157.973 287.199 157.277 291.06 156.579 294.984Z" fill="black"/>
<path fill-rule="evenodd" clip-rule="evenodd" d="M220.404 148.614C221.086 145.21 221.767 141.742 222.419 138.254C223.081 134.774 223.781 131.275 224.322 127.756L225.487 129.523C222.854 129.079 220.217 128.671 217.599 128.158C214.98 127.65 212.376 127.069 209.779 126.463C204.588 125.232 199.415 123.897 194.183 122.869L195.677 121.882C194.927 125.535 194.332 129.22 193.687 132.893C193.074 136.573 192.369 140.235 191.567 143.877L190.281 141.926C195.278 143.049 200.317 144.484 205.398 145.592C207.933 146.149 210.465 146.692 212.973 147.19C215.477 147.691 217.977 148.191 220.404 148.614ZM222.196 151.331C219.398 150.684 216.669 150.111 213.952 149.54C211.232 148.968 208.542 148.44 205.851 147.926C200.482 146.893 195.069 146.185 189.616 145.165C188.736 145 188.156 144.151 188.318 143.27L188.319 143.266L188.33 143.213C189.023 139.55 189.814 135.906 190.696 132.28C191.548 128.649 192.448 125.027 193.195 121.374L193.197 121.363C193.336 120.684 193.999 120.246 194.679 120.385L194.689 120.387C199.906 121.504 205.186 122.31 210.445 123.221C213.07 123.687 215.694 124.177 218.3 124.74C220.908 125.298 223.494 125.96 226.087 126.588L226.205 126.616C226.972 126.801 227.442 127.575 227.258 128.343L227.253 128.357C226.299 132.142 225.5 135.949 224.669 139.776C223.824 143.592 223.01 147.43 222.196 151.331Z" fill="black"/>
<path fill-rule="evenodd" clip-rule="evenodd" d="M213.886 186.274C214.568 182.87 215.248 179.403 215.9 175.914C216.563 172.434 217.264 168.936 217.803 165.415L218.97 167.184C216.336 166.74 213.699 166.331 211.08 165.818C208.462 165.31 205.858 164.729 203.26 164.124C198.069 162.892 192.897 161.556 187.665 160.53L189.159 159.543C188.41 163.196 187.814 166.879 187.17 170.554C186.557 174.234 185.851 177.896 185.049 181.537L183.763 179.587C188.76 180.709 193.798 182.144 198.88 183.253C201.414 183.81 203.947 184.353 206.454 184.851C208.96 185.351 211.459 185.85 213.886 186.274ZM215.678 188.991C212.879 188.344 210.151 187.772 207.433 187.201C204.714 186.629 202.023 186.101 199.332 185.586C193.964 184.552 188.55 183.844 183.097 182.825C182.219 182.66 181.638 181.812 181.8 180.93L181.801 180.927L181.811 180.874C182.504 177.209 183.295 173.565 184.179 169.94C185.029 166.309 185.929 162.687 186.676 159.034L186.678 159.024C186.817 158.344 187.482 157.906 188.16 158.045L188.17 158.048C193.388 159.164 198.668 159.97 203.926 160.882C206.551 161.347 209.175 161.836 211.782 162.4C214.39 162.958 216.977 163.621 219.568 164.249L219.687 164.276C220.454 164.462 220.924 165.234 220.74 166.002L220.736 166.017C219.78 169.801 218.981 173.608 218.15 177.435C217.306 181.251 216.493 185.089 215.678 188.991Z" fill="black"/>
<path fill-rule="evenodd" clip-rule="evenodd" d="M207.368 223.934C208.049 220.531 208.73 217.062 209.382 213.574C210.045 210.095 210.745 206.596 211.285 203.075L212.451 204.845C209.818 204.4 207.18 203.991 204.562 203.478C201.944 202.971 199.341 202.389 196.742 201.783C191.551 200.552 186.379 199.216 181.146 198.189L182.64 197.204C181.892 200.856 181.295 204.54 180.652 208.214C180.038 211.893 179.332 215.557 178.531 219.197L177.244 217.247C182.241 218.369 187.28 219.804 192.362 220.912C194.897 221.469 197.428 222.013 199.936 222.511C202.441 223.011 204.94 223.511 207.368 223.934ZM209.159 226.651C206.361 226.004 203.633 225.433 200.916 224.861C198.196 224.289 195.506 223.76 192.814 223.246C187.445 222.213 182.033 221.504 176.579 220.485C175.7 220.321 175.119 219.472 175.282 218.59V218.587L175.294 218.533C175.986 214.87 176.777 211.225 177.661 207.6C178.511 203.97 179.411 200.347 180.158 196.694L180.16 196.684C180.299 196.005 180.963 195.566 181.642 195.705L181.653 195.707C186.869 196.824 192.15 197.63 197.408 198.542C200.033 199.007 202.657 199.496 205.263 200.061C207.871 200.618 210.458 201.281 213.05 201.908L213.169 201.937C213.935 202.123 214.406 202.895 214.221 203.662L214.218 203.677C213.262 207.461 212.463 211.268 211.632 215.095C210.789 218.911 209.974 222.75 209.159 226.651Z" fill="black"/>
<path fill-rule="evenodd" clip-rule="evenodd" d="M200.849 261.594C201.531 258.191 202.212 254.724 202.863 251.234C203.526 247.755 204.227 244.256 204.766 240.736L205.933 242.504C203.3 242.061 200.662 241.651 198.043 241.139C195.425 240.63 192.822 240.049 190.223 239.443C185.031 238.213 179.861 236.877 174.628 235.849L176.122 234.864C175.373 238.517 174.777 242.2 174.132 245.875C173.52 249.553 172.815 253.217 172.013 256.857L170.726 254.907C175.721 256.029 180.761 257.464 185.844 258.573C188.378 259.129 190.91 259.673 193.417 260.171C195.923 260.671 198.422 261.171 200.849 261.594ZM202.641 264.312C199.842 263.664 197.115 263.093 194.397 262.522C191.677 261.95 188.987 261.421 186.295 260.906C180.927 259.873 175.514 259.165 170.061 258.145C169.182 257.98 168.601 257.131 168.764 256.25V256.247L168.774 256.194C169.468 252.53 170.259 248.886 171.141 245.261C171.993 241.63 172.893 238.008 173.639 234.354L173.641 234.345C173.781 233.665 174.445 233.227 175.123 233.366L175.135 233.368C180.35 234.484 185.632 235.291 190.889 236.201C193.514 236.667 196.138 237.157 198.745 237.721C201.353 238.278 203.94 238.941 206.531 239.568L206.65 239.597C207.417 239.783 207.887 240.555 207.703 241.323L207.699 241.337C206.743 245.122 205.944 248.929 205.113 252.756C204.27 256.572 203.456 260.41 202.641 264.312Z" fill="black"/>
<path fill-rule="evenodd" clip-rule="evenodd" d="M194.33 299.255C195.011 295.851 195.693 292.383 196.345 288.895C197.007 285.416 197.707 281.917 198.247 278.396L199.413 280.164C196.78 279.721 194.143 279.312 191.524 278.799C188.906 278.29 186.302 277.709 183.704 277.104C178.514 275.873 173.341 274.537 168.108 273.51L169.602 272.524C168.853 276.177 168.259 279.861 167.614 283.535C167 287.214 166.295 290.877 165.493 294.518L164.206 292.568C169.204 293.689 174.242 295.125 179.324 296.233C181.859 296.79 184.39 297.334 186.897 297.832C189.403 298.331 191.902 298.831 194.33 299.255ZM196.123 301.972C193.323 301.324 190.596 300.753 187.878 300.182C185.158 299.609 182.468 299.081 179.775 298.567C174.409 297.534 168.995 296.825 163.542 295.805C162.662 295.641 162.081 294.791 162.244 293.911V293.908L162.256 293.854C162.949 290.19 163.74 286.546 164.623 282.921C165.474 279.29 166.373 275.668 167.121 272.015L167.123 272.005C167.262 271.325 167.925 270.887 168.605 271.026L168.615 271.028C173.831 272.145 179.112 272.951 184.369 273.861C186.997 274.328 189.619 274.817 192.225 275.381C194.834 275.938 197.42 276.6 200.013 277.228L200.131 277.257C200.897 277.442 201.368 278.215 201.183 278.983L201.18 278.998C200.223 282.782 199.425 286.589 198.594 290.416C197.751 294.232 196.936 298.07 196.123 301.972Z" fill="black"/>
<path fill-rule="evenodd" clip-rule="evenodd" d="M266.841 157.201C267.434 153.781 268.023 150.297 268.584 146.791C269.154 143.296 269.76 139.781 270.208 136.247L271.421 137.983C268.779 137.609 266.13 137.271 263.499 136.826C260.87 136.387 258.252 135.875 255.638 135.338C250.416 134.243 245.211 133.045 239.952 132.155L241.419 131.13C240.77 134.802 240.269 138.5 239.72 142.19C239.205 145.885 238.598 149.563 237.889 153.224L236.552 151.308C241.578 152.299 246.651 153.601 251.762 154.575C254.309 155.066 256.857 155.542 259.375 155.974C261.894 156.408 264.406 156.842 266.841 157.201ZM268.702 159.871C265.89 159.297 263.149 158.797 260.413 158.297C257.683 157.797 254.979 157.339 252.274 156.897C246.883 156.004 241.45 155.44 235.974 154.563C235.088 154.422 234.486 153.589 234.628 152.703V152.699L234.638 152.646C235.231 148.965 235.929 145.302 236.716 141.655C237.472 138.002 238.273 134.358 238.927 130.687L238.929 130.676C239.049 129.993 239.703 129.538 240.384 129.659L240.394 129.662C245.639 130.639 250.937 131.307 256.216 132.08C258.857 132.475 261.49 132.896 264.11 133.391C266.731 133.881 269.334 134.474 271.943 135.033L272.062 135.059C272.834 135.224 273.326 135.984 273.16 136.757L273.157 136.771C272.301 140.579 271.603 144.407 270.87 148.253C270.129 152.09 269.416 155.948 268.702 159.871Z" fill="black"/>
<path fill-rule="evenodd" clip-rule="evenodd" d="M261.314 195.02C261.906 191.6 262.496 188.116 263.058 184.61C263.628 181.115 264.234 177.599 264.68 174.065L265.893 175.803C263.252 175.427 260.604 175.089 257.972 174.644C255.343 174.207 252.724 173.694 250.11 173.156C244.89 172.062 239.685 170.863 234.425 169.975L235.892 168.948C235.242 172.62 234.741 176.318 234.192 180.008C233.676 183.703 233.071 187.382 232.361 191.044L231.024 189.127C236.05 190.118 241.125 191.42 246.236 192.394C248.782 192.884 251.328 193.36 253.849 193.793C256.366 194.226 258.878 194.661 261.314 195.02ZM263.176 197.689C260.362 197.116 257.622 196.616 254.887 196.115C252.155 195.616 249.451 195.158 246.745 194.715C241.355 193.823 235.924 193.258 230.446 192.382C229.56 192.241 228.959 191.407 229.101 190.521V190.518L229.11 190.466C229.704 186.784 230.402 183.121 231.189 179.474C231.945 175.821 232.746 172.176 233.4 168.506L233.402 168.496C233.521 167.812 234.175 167.357 234.858 167.477L234.866 167.48C240.112 168.458 245.411 169.126 250.689 169.898C253.329 170.294 255.962 170.716 258.584 171.209C261.203 171.699 263.807 172.293 266.415 172.853L266.535 172.878C267.307 173.043 267.799 173.804 267.632 174.575L267.63 174.59C266.773 178.398 266.075 182.225 265.344 186.073C264.603 189.909 263.889 193.768 263.176 197.689Z" fill="black"/>
<path fill-rule="evenodd" clip-rule="evenodd" d="M255.787 232.839C256.38 229.419 256.969 225.934 257.53 222.429C258.101 218.934 258.706 215.418 259.153 211.884L260.366 213.621C257.725 213.247 255.076 212.907 252.445 212.464C249.816 212.025 247.196 211.513 244.584 210.976C239.362 209.881 234.157 208.682 228.899 207.793L230.364 206.768C229.715 210.438 229.215 214.137 228.666 217.826C228.149 221.522 227.543 225.201 226.834 228.862L225.497 226.945C230.524 227.936 235.597 229.238 240.709 230.212C243.255 230.702 245.803 231.178 248.321 231.611C250.84 232.044 253.352 232.479 255.787 232.839ZM257.648 235.509C254.834 234.934 252.095 234.435 249.36 233.935C246.629 233.434 243.924 232.977 241.218 232.533C235.828 231.641 230.397 231.077 224.921 230.201C224.034 230.059 223.432 229.227 223.573 228.339L223.574 228.337L223.583 228.284C224.176 224.603 224.875 220.94 225.661 217.292C226.417 213.639 227.219 209.995 227.873 206.324L227.874 206.314C227.995 205.63 228.648 205.175 229.331 205.297L229.34 205.299C234.584 206.277 239.883 206.945 245.161 207.717C247.802 208.112 250.435 208.534 253.057 209.029C255.676 209.517 258.279 210.112 260.889 210.671L261.008 210.696C261.779 210.861 262.271 211.622 262.106 212.394L262.102 212.408C261.247 216.216 260.548 220.044 259.815 223.891C259.076 227.728 258.361 231.586 257.648 235.509Z" fill="black"/>
<path fill-rule="evenodd" clip-rule="evenodd" d="M250.26 270.657C250.853 267.237 251.442 263.753 252.003 260.247C252.574 256.752 253.179 253.237 253.627 249.703L254.839 251.439C252.198 251.065 249.549 250.727 246.918 250.282C244.29 249.843 241.67 249.331 239.057 248.794C233.835 247.699 228.63 246.5 223.372 245.612L224.838 244.586C224.189 248.257 223.688 251.956 223.139 255.645C222.624 259.34 222.017 263.019 221.308 266.68L219.97 264.764C224.997 265.756 230.071 267.058 235.181 268.03C237.729 268.521 240.275 268.998 242.795 269.43C245.313 269.864 247.825 270.298 250.26 270.657ZM252.121 273.327C249.308 272.752 246.569 272.253 243.834 271.753C241.102 271.253 238.398 270.795 235.693 270.353C230.301 269.461 224.869 268.896 219.393 268.02C218.507 267.879 217.905 267.045 218.047 266.159V266.155L218.056 266.102C218.65 262.421 219.348 258.759 220.135 255.111C220.891 251.459 221.692 247.814 222.346 244.142L222.348 244.133C222.468 243.45 223.122 242.993 223.805 243.115L223.813 243.117C229.058 244.095 234.356 244.763 239.635 245.536C242.276 245.931 244.909 246.353 247.529 246.847C250.15 247.336 252.753 247.931 255.362 248.489L255.481 248.516C256.253 248.68 256.745 249.441 256.579 250.213L256.575 250.226C255.72 254.035 255.022 257.862 254.289 261.709C253.548 265.546 252.835 269.405 252.121 273.327Z" fill="black"/>
<path fill-rule="evenodd" clip-rule="evenodd" d="M244.733 308.477C245.325 305.055 245.915 301.571 246.477 298.067C247.046 294.57 247.651 291.055 248.099 287.521L249.311 289.258C246.671 288.884 244.023 288.545 241.391 288.1C238.762 287.661 236.143 287.149 233.529 286.612C228.309 285.519 223.104 284.319 217.844 283.43L219.311 282.404C218.661 286.076 218.16 289.775 217.611 293.464C217.096 297.16 216.49 300.838 215.78 304.499L214.444 302.583C219.469 303.574 224.543 304.876 229.655 305.85C232.201 306.34 234.748 306.816 237.268 307.249C239.786 307.682 242.298 308.116 244.733 308.477ZM246.595 311.145C243.781 310.572 241.041 310.072 238.306 309.572C235.575 309.072 232.87 308.614 230.164 308.171C224.774 307.279 219.343 306.715 213.866 305.838C212.979 305.697 212.378 304.864 212.52 303.977V303.974L212.529 303.92C213.123 300.241 213.821 296.577 214.608 292.929C215.364 289.277 216.164 285.632 216.818 281.961L216.821 281.951C216.94 281.268 217.594 280.812 218.277 280.934L218.285 280.936C223.531 281.914 228.83 282.583 234.108 283.355C236.748 283.75 239.381 284.172 242.003 284.665C244.622 285.155 247.225 285.749 249.834 286.309L249.954 286.334C250.726 286.498 251.218 287.259 251.052 288.032L251.047 288.045C250.192 291.854 249.494 295.681 248.761 299.527C248.022 303.365 247.308 307.223 246.595 311.145Z" fill="black"/>
<path fill-rule="evenodd" clip-rule="evenodd" d="M309.999 164.01C310.501 160.575 310.996 157.077 311.469 153.559C311.947 150.049 312.461 146.519 312.816 142.974L314.073 144.679C311.421 144.374 308.766 144.104 306.123 143.73C303.482 143.36 300.853 142.917 298.226 142.448C292.977 141.491 287.741 140.429 282.462 139.679L283.902 138.615C283.348 142.302 282.944 146.012 282.492 149.715C282.074 153.422 281.564 157.116 280.95 160.795L279.564 158.914C284.613 159.772 289.718 160.941 294.855 161.781C297.414 162.204 299.974 162.614 302.5 162.98C305.031 163.347 307.554 163.715 309.999 164.01ZM311.93 166.629C309.102 166.13 306.349 165.703 303.603 165.274C300.859 164.845 298.144 164.46 295.426 164.088C290.012 163.337 284.57 162.915 279.072 162.183C278.184 162.065 277.56 161.248 277.676 160.359L277.677 160.355L277.685 160.302C278.184 156.606 278.782 152.926 279.475 149.259C280.134 145.589 280.843 141.924 281.397 138.238L281.4 138.226C281.504 137.541 282.144 137.068 282.827 137.172L282.837 137.174C288.106 138.014 293.421 138.543 298.719 139.176C301.367 139.503 304.01 139.855 306.644 140.28C309.277 140.7 311.896 141.226 314.517 141.716L314.637 141.739C315.412 141.884 315.923 142.631 315.777 143.406L315.774 143.421C315.02 147.251 314.422 151.095 313.79 154.96C313.152 158.815 312.537 162.69 311.93 166.629Z" fill="black"/>
<path fill-rule="evenodd" clip-rule="evenodd" d="M305.465 201.961C305.968 198.526 306.463 195.028 306.935 191.509C307.413 188 307.927 184.47 308.283 180.926L309.54 182.629C306.888 182.325 304.233 182.055 301.59 181.681C298.95 181.311 296.32 180.868 293.691 180.399C288.443 179.442 283.208 178.38 277.929 177.629L279.368 176.566C278.814 180.253 278.41 183.962 277.959 187.665C277.541 191.373 277.031 195.067 276.417 198.746L275.032 196.865C280.08 197.723 285.185 198.892 290.322 199.731C292.881 200.154 295.44 200.564 297.967 200.93C300.496 201.298 303.021 201.666 305.465 201.961ZM307.397 204.581C304.568 204.08 301.816 203.653 299.07 203.226C296.326 202.797 293.609 202.41 290.893 202.039C285.479 201.288 280.037 200.866 274.537 200.134C273.651 200.015 273.027 199.199 273.143 198.31L273.144 198.307L273.151 198.252C273.651 194.557 274.249 190.877 274.941 187.21C275.6 183.54 276.31 179.875 276.865 176.188L276.866 176.177C276.971 175.491 277.611 175.019 278.294 175.123L278.304 175.124C283.573 175.965 288.888 176.493 294.186 177.127C296.834 177.453 299.477 177.805 302.111 178.23C304.744 178.651 307.362 179.177 309.984 179.667L310.103 179.69C310.879 179.835 311.389 180.582 311.244 181.358L311.241 181.371C310.487 185.202 309.889 189.046 309.257 192.911C308.618 196.765 308.004 200.641 307.397 204.581Z" fill="black"/>
<path fill-rule="evenodd" clip-rule="evenodd" d="M300.931 239.912C301.434 236.476 301.929 232.978 302.4 229.46C302.879 225.95 303.393 222.419 303.748 218.876L305.006 220.581C302.354 220.275 299.697 220.005 297.055 219.631C294.415 219.262 291.786 218.818 289.158 218.349C283.909 217.394 278.674 216.33 273.395 215.58L274.835 214.517C274.28 218.203 273.876 221.913 273.425 225.616C273.007 229.323 272.497 233.018 271.883 236.696L270.496 234.815C275.545 235.674 280.651 236.842 285.788 237.682C288.347 238.105 290.906 238.515 293.433 238.881C295.963 239.249 298.487 239.616 300.931 239.912ZM302.863 242.531C300.034 242.031 297.282 241.604 294.536 241.176C291.792 240.748 289.075 240.361 286.359 239.989C280.945 239.239 275.503 238.817 270.003 238.085C269.117 237.966 268.493 237.149 268.609 236.261V236.257L268.618 236.204C269.117 232.507 269.715 228.829 270.407 225.162C271.066 221.49 271.775 217.827 272.33 214.139L272.332 214.127C272.436 213.442 273.076 212.969 273.759 213.073L273.77 213.075C279.039 213.916 284.354 214.444 289.652 215.077C292.3 215.404 294.942 215.756 297.577 216.181C300.21 216.601 302.828 217.127 305.45 217.618L305.569 217.64C306.345 217.785 306.855 218.532 306.709 219.308L306.707 219.323C305.952 223.152 305.355 226.996 304.723 230.861C304.084 234.717 303.47 238.591 302.863 242.531Z" fill="black"/>
<path d="M406.829 268.06C408.026 267.624 408.66 266.319 408.238 265.159L405.938 258.834L406.278 258.71C412.967 256.273 417.616 249.834 416.93 242.95C416.127 234.855 408.854 229.296 400.951 229.921L383.547 231.307C381.183 231.496 378.834 230.457 377.713 228.433C375.965 225.278 377.589 221.403 380.948 220.18L390.983 216.525C393.145 215.737 395.505 215.623 397.695 216.183C398.781 216.46 399.917 215.941 400.401 214.944L402.418 210.792C403.016 209.559 402.375 208.091 401.059 207.69C396.785 206.397 392.212 206.525 387.915 208.091L387.535 208.229L385.234 201.904C384.813 200.744 383.489 200.152 382.292 200.588L377.941 202.173C376.744 202.608 376.11 203.914 376.532 205.074L378.833 211.399L378.493 211.523C371.803 213.96 367.154 220.399 367.84 227.283C368.644 235.378 375.916 240.937 383.819 240.311L401.223 238.926C403.587 238.736 405.936 239.776 407.058 241.8C408.805 244.954 407.181 248.829 403.822 250.053L393.788 253.708C391.626 254.496 389.265 254.61 387.075 254.049C385.989 253.773 384.853 254.291 384.369 255.289L382.353 259.441C381.754 260.674 382.395 262.141 383.712 262.542C387.972 263.841 392.545 263.712 396.855 262.142L397.236 262.004L399.536 268.329C399.958 269.489 401.282 270.081 402.478 269.645L406.829 268.06Z" fill="#F6AE2D"/>
<path d="M74.9572 110.998C75.9293 111.188 76.8799 110.543 77.0697 109.566L78.1045 104.237L78.3807 104.291C83.8158 105.348 89.5167 102.794 91.8509 97.7404C94.5979 91.7997 92.0167 84.9605 86.5094 82.1491L74.3773 75.9634C72.7289 75.1242 71.5887 73.439 71.6639 71.5757C71.7806 68.6718 74.4312 66.6528 77.1599 67.1837L85.3126 68.77C87.0691 69.1118 88.6846 70.0022 89.9136 71.2898C90.5235 71.9269 91.4887 72.0342 92.2148 71.5418L95.2383 69.4916C96.1361 68.8828 96.3046 67.6021 95.5921 66.7837C93.2754 64.1322 90.1833 62.3439 86.6923 61.6646L86.383 61.6045L87.4179 56.2754C87.6076 55.2984 86.9674 54.3443 85.9953 54.1551L82.4602 53.4673C81.4881 53.2781 80.5375 53.9228 80.3477 54.8997L79.3129 60.2288L79.0367 60.175C73.6016 59.1175 67.9007 61.6721 65.5665 66.7253C62.8195 72.666 65.4007 79.5051 70.908 82.3166L83.0401 88.5023C84.6885 89.3415 85.8287 91.0266 85.7535 92.89C85.6368 95.7938 82.9862 97.8129 80.2575 97.2819L72.1048 95.6956C70.3483 95.3538 68.7328 94.4634 67.5038 93.1759C66.8939 92.5387 65.9287 92.4315 65.2026 92.9239L62.1791 94.9741C61.2813 95.5828 61.1128 96.8636 61.8253 97.6819C64.131 100.331 67.2231 102.12 70.7251 102.801L71.0343 102.861L69.9995 108.19C69.8098 109.167 70.45 110.121 71.4221 110.311L74.9572 110.998Z" fill="#F6AE2D"/>
</svg>
