<svg width="360" height="356" viewBox="0 0 360 356" fill="none" xmlns="http://www.w3.org/2000/svg">
<path fill-rule="evenodd" clip-rule="evenodd" d="M211 2C211 3.25049 210.936 4.48609 210.812 5.70372C252.03 13.0251 288.259 34.7751 314.092 65.5462C315.271 64.3747 316.537 63.2829 317.878 62.2802C291.161 30.4798 253.644 8.05574 210.975 0.655151C210.992 1.10141 211 1.54974 211 2ZM351.214 122.293C356.917 139.834 360 158.557 360 178C360 203.106 354.86 227.011 345.576 248.721C344.128 247.921 342.601 247.237 341.008 246.682C350.015 225.595 355 202.379 355 178C355 158.959 351.959 140.629 346.336 123.467C348.005 123.183 349.634 122.789 351.214 122.293ZM207.737 355.876C250.711 349.229 288.664 327.382 315.93 296C314.466 295.154 313.088 294.189 311.809 293.118C285.544 323.166 249.171 344.153 207.993 350.773C207.998 351.015 208 351.257 208 351.5C208 352.982 207.911 354.443 207.737 355.876ZM142.085 354C105.614 346.181 73.2429 327.313 48.6454 301.07C50.0056 300.087 51.2908 299.015 52.4913 297.861C76.1457 323.015 107.159 341.169 142.093 348.883C142.032 349.747 142 350.62 142 351.5C142 352.341 142.029 353.174 142.085 354ZM0 178C0 200.624 4.17395 222.273 11.7938 242.22C13.3045 241.544 14.8724 240.966 16.4884 240.494C9.06611 221.086 5 200.018 5 178C5 157.027 8.68952 136.915 15.4549 118.279C14.6306 118.011 13.8071 117.717 12.9859 117.397C12.2402 117.107 11.5076 116.8 10.7887 116.476C3.8077 135.672 0 156.391 0 178ZM38.6328 66.564C63.4882 35.0757 98.6392 12.0909 139.006 2.68876C139.039 4.39811 139.19 6.07831 139.452 7.72142C100.698 16.9153 66.9327 38.9966 42.9326 69.1886C41.5732 68.247 40.138 67.369 38.6328 66.564Z" fill="#2A2A2A"/>
</svg>
