<svg width="72" height="69" viewBox="0 0 72 69" fill="none" xmlns="http://www.w3.org/2000/svg">
<ellipse cx="40.6959" cy="37.6363" rx="31.3043" ry="31.3636" fill="#F6AE2D"/>
<g clip-path="url(#clip0_456_4082)">
<path d="M62.6087 31.5248C62.6087 35.63 61.6175 39.7352 59.883 43.4298C58.1484 47.1245 55.7531 50.4087 52.8622 53.2823C49.9713 56.0738 46.5848 58.3727 42.868 60.0148C39.1511 61.6569 35.1038 62.6421 30.974 62.8063C26.8441 62.9705 22.7142 62.2316 18.8322 60.6716C15.0327 59.1117 11.481 56.7306 8.67271 53.7749C5.8644 50.8192 3.63428 47.2887 2.14753 43.5119C0.743375 39.571 0 35.5479 0 31.5248C0 27.5017 0.743375 23.4786 2.23012 19.7018C3.63428 15.9251 5.8644 12.3946 8.67271 9.43888C14.2893 3.3632 22.7142 -0.249367 30.974 -0.00305531C35.1038 0.161152 39.2337 1.06429 42.9506 2.78847C46.6674 4.43055 50.1365 6.72945 53.0274 9.60308C55.9183 12.4767 58.3962 15.7609 60.0482 19.5376C61.7001 23.2323 62.6087 27.4196 62.6087 31.5248ZM57.2399 31.5248C57.2399 28.0764 56.5791 24.7102 55.4227 21.5081C54.1838 18.3061 52.3666 15.2682 49.8887 12.8051C47.4108 10.342 44.4373 8.37153 41.216 7.13997C37.9121 5.90842 34.443 5.41579 31.0566 5.58C27.5875 5.74421 24.2836 6.40104 21.0623 7.63259C17.9236 8.94625 14.9501 10.7525 12.3896 13.0514C9.82907 15.3503 7.76414 18.224 6.35999 21.426C4.87324 24.546 4.12986 27.9943 4.21246 31.5248C4.12986 38.5036 7.43375 45.3182 12.3896 49.9981C17.428 54.678 24.0358 57.4696 30.974 57.798C34.443 57.9622 37.9121 57.3875 41.216 56.1559C44.5199 54.9244 47.4934 52.9539 49.9713 50.4087C52.4492 47.8634 54.2664 44.8256 55.4227 41.5414C56.6617 38.3394 57.2399 34.891 57.2399 31.5248Z" fill="black"/>
</g>
<defs>
<clipPath id="clip0_456_4082">
<rect width="62.6087" height="62.7273" fill="white"/>
</clipPath>
</defs>
</svg>
