<svg width="23" height="22" viewBox="0 0 23 22" fill="none" xmlns="http://www.w3.org/2000/svg">
<circle cx="13" cy="12" r="10" fill="#17BEBB"/>
<g clip-path="url(#clip0_83_6113)">
<path d="M20 10.0514C20 11.3603 19.6834 12.6692 19.1293 13.8472C18.5752 15.0252 17.81 16.0723 16.8865 16.9885C15.9631 17.8786 14.8813 18.6116 13.6939 19.1351C12.5066 19.6587 11.2137 19.9728 9.89446 20.0252C8.5752 20.0775 7.25594 19.8419 6.01583 19.3446C4.80211 18.8472 3.66755 18.088 2.77045 17.1456C1.87335 16.2032 1.16095 15.0775 0.686016 13.8734C0.237467 12.6168 0 11.3341 0 10.0514C0 8.76865 0.237467 7.48592 0.712401 6.28174C1.16095 5.07755 1.87335 3.95189 2.77045 3.00948C4.56464 1.07231 7.25594 -0.0795206 9.89446 -0.000986541C11.2137 0.0513695 12.533 0.339328 13.7203 0.889066C14.9077 1.41263 16.0158 2.14561 16.9393 3.06184C17.8628 3.97807 18.6544 5.02519 19.1821 6.22938C19.7098 7.40739 20 8.74247 20 10.0514ZM18.285 10.0514C18.285 8.95189 18.0739 7.87859 17.7045 6.85765C17.3087 5.83671 16.7282 4.86812 15.9367 4.08278C15.1451 3.29744 14.1953 2.66917 13.1662 2.2765C12.1108 1.88383 11.0026 1.72676 9.92084 1.77912C8.81266 1.83147 7.75726 2.0409 6.72823 2.43357C5.72559 2.85242 4.77573 3.42833 3.95778 4.16132C3.13984 4.8943 2.48021 5.81053 2.03166 6.83147C1.55673 7.82624 1.31926 8.92571 1.34565 10.0514C1.31926 12.2765 2.37467 14.4493 3.95778 15.9414C5.56728 17.4336 7.6781 18.3236 9.89446 18.4283C11.0026 18.4807 12.1108 18.2974 13.1662 17.9048C14.2216 17.5121 15.1715 16.8838 15.9631 16.0723C16.7546 15.2608 17.3351 14.2922 17.7045 13.2451C18.1003 12.2241 18.285 11.1247 18.285 10.0514Z" fill="black"/>
</g>
<defs>
<clipPath id="clip0_83_6113">
<rect width="20" height="20" fill="white"/>
</clipPath>
</defs>
</svg>
