<svg width="51" height="71" viewBox="0 0 51 71" fill="none" xmlns="http://www.w3.org/2000/svg">
<path fill-rule="evenodd" clip-rule="evenodd" d="M44.1369 1.05549C22.1851 17.134 22.8923 18.1283 0.938937 34.2051C-0.387075 35.1745 -0.209305 37.2072 1.427 37.248C9.84239 37.4561 9.83488 37.7287 18.2518 37.9386C19.7579 37.9786 21.8075 39.3482 21.1201 40.7124C15.7694 51.224 15.2779 50.9652 9.92567 61.475C9.06164 63.1719 8.88867 65.4096 10.5574 66.2836C13.8982 68.0316 13.7529 68.3163 17.0937 70.0643C18.7625 70.9382 21.2536 69.5544 22.1159 67.8591C27.4685 57.3443 28.6394 57.9572 33.9902 47.4439C34.6859 46.0786 35.0525 45.4828 35.9579 46.707C40.9993 53.5428 40.4645 53.951 45.5075 60.7868C46.487 62.1084 49.0238 60.8032 49.0354 59.1522C49.2438 31.6927 49.9609 31.696 50.1694 4.23645C50.1909 1.40511 46.3999 -0.602235 44.1369 1.05549Z" fill="#F6AE2D"/>
</svg>
