<svg width="77" height="72" viewBox="0 0 77 72" fill="none" xmlns="http://www.w3.org/2000/svg">
<path d="M4.89891 0.59749C22.2103 2.71006 22.0389 4.13129 39.3503 6.24386C56.6616 8.35643 56.6883 8.16445 73.9975 10.2871C76.7148 10.6177 77.4643 12.9758 75.5917 14.9708C62.6704 28.7386 63.5633 29.5742 50.6386 43.3413C37.7139 57.1084 37.2124 56.6419 24.2979 70.4111C23.2665 71.5753 21.5515 71.8412 20.2147 71.0442C18.8778 70.2473 18.2973 68.6129 18.8324 67.1529C24.8673 49.4154 25.3904 49.5972 31.4415 31.8667C31.9084 30.5012 30.3358 29.4893 29.181 28.6226C15.5206 18.3424 15.4505 18.4228 1.80021 8.14483C-0.930225 6.06443 1.5071 0.165953 4.89891 0.59749Z" fill="#F6AE2D"/>
</svg>
