<svg width="71" height="65" viewBox="0 0 71 65" fill="none" xmlns="http://www.w3.org/2000/svg">
<path d="M67.5224 61.3837C51.4993 62.5161 51.4045 61.201 35.3815 62.3334C19.3585 63.4657 19.3681 63.644 3.34529 64.7668C0.830427 64.9455 -0.2616 62.9451 1.08084 60.8124C10.3438 46.0936 9.38962 45.495 18.6557 30.7763C27.9218 16.0575 28.4572 16.3913 37.7137 1.67241C38.4417 0.438562 39.9455 -0.103238 41.2942 0.38238C42.643 0.867999 43.4551 2.24361 43.2278 3.65774C40.8888 20.7553 40.3839 20.6829 38.029 37.7771C37.8469 39.0937 39.4465 39.7322 40.6429 40.3128C54.8004 47.2067 54.8496 47.1217 68.9976 54.0154C71.8319 55.4165 70.6648 61.1778 67.5224 61.3837Z" fill="#F6AE2D"/>
</svg>
