<svg width="130" height="25" viewBox="0 0 130 25" fill="none" xmlns="http://www.w3.org/2000/svg">
<path fill-rule="evenodd" clip-rule="evenodd" d="M10.1315 4.66798C8.852 4.66798 7.50347 5.35942 7.50347 6.74264C7.50347 8.5061 9.68186 8.92104 11.2379 9.4744C14.661 10.6502 18.8451 12.2405 18.8451 17.5312C18.8451 22.7179 13.8659 25 9.4397 25C5.63628 25 2.66236 23.4787 0 20.7816L3.63065 17.22C5.49785 18.9488 6.91541 20.2973 9.50874 20.2973C11.2032 20.2973 12.8972 19.5022 12.8972 17.635C12.8972 15.7331 10.6502 14.9722 8.47176 14.1771C5.25604 12.9666 1.90189 11.4453 1.90189 6.77734C1.90189 2.17839 6.01651 0 10.0625 0C13.2435 0 15.7331 1.03733 18.2917 2.97356L15.145 6.91577C13.7274 5.74001 11.9983 4.66798 10.1315 4.66798Z" fill="white"/>
<path fill-rule="evenodd" clip-rule="evenodd" d="M30.0134 11.0304H31.5347C33.9206 11.0304 35.6497 10.2696 35.6497 8.09123C35.6497 6.18934 34.2665 5.01358 32.1915 5.01358H30.0134V11.0304ZM32.3305 0.379883C36.5142 0.379883 41.5974 2.4202 41.5974 7.98744C41.5974 13.6234 36.5489 15.6637 32.3305 15.6637H30.0137V24.5851H24.4121V0.379883H32.3305Z" fill="white"/>
<path fill-rule="evenodd" clip-rule="evenodd" d="M52.0042 10.5117H53.4908C55.7385 10.5117 57.3983 9.71657 57.3983 7.84937C57.3983 6.15495 56.0841 5.01389 54.1478 5.01389H52.0042V10.5117ZM46.4023 0.380249H54.2864C58.263 0.380249 63.3459 2.42057 63.3459 7.74564C63.3459 11.3763 60.96 13.451 58.332 14.4883C60.476 17.4622 64.0033 22.372 65.628 24.5851H58.6432L52.2461 15.1454H52.0043V24.5851H46.4023V0.380249Z" fill="white"/>
<path fill-rule="evenodd" clip-rule="evenodd" d="M69.9062 24.5852L77.0805 12.4828L69.9062 0.380371H75.5078L82.682 12.4828L75.5078 24.5852H69.9062Z" fill="#0DC9C5"/>
<path fill-rule="evenodd" clip-rule="evenodd" d="M103.046 24.5852L92.8106 10.5462V24.5852H87.209V0.380371H92.1535L102.493 14.4884V0.380371H108.094V24.5852H103.046Z" fill="white"/>
<path fill-rule="evenodd" clip-rule="evenodd" d="M123.619 5.01377V24.5853H118.018V5.01377H112.416V0.380127H129.221V5.01377H123.619Z" fill="white"/>
</svg>
